<svg width="62" height="62" viewBox="0 0 62 62" fill="none" xmlns="http://www.w3.org/2000/svg">
<path d="M61.694 35.6449L54.5021 27.4345C54.2675 27.1669 53.929 27.0132 53.5731 27.0132H47.5844V21.9427C47.5844 21.2606 47.0313 20.7077 46.3493 20.7077H30.8409C30.4269 15.5691 26.1159 11.5134 20.8724 11.5134C15.3561 11.5134 10.8684 16.0012 10.8684 21.5175C10.8684 26.6046 14.686 30.8138 19.6062 31.4384V42.0892H12.4562C11.7741 42.0892 11.2212 42.6421 11.2212 43.3243C11.2212 44.0064 11.7741 44.5593 12.4562 44.5593H19.6062V45.8144C19.6062 46.4966 20.1591 47.0495 20.8412 47.0495H23.4192C23.9623 49.028 25.7755 50.4864 27.9242 50.4864C30.0729 50.4864 31.8862 49.028 32.4294 47.0495H48.9088C49.4519 49.028 51.2651 50.4864 53.4138 50.4864C55.5625 50.4864 57.3758 49.028 57.919 47.0495H60.7649C61.4469 47.0495 62 46.4966 62 45.8144V36.4586C62 36.1593 61.8911 35.8701 61.694 35.6449ZM13.3386 21.5175C13.3386 17.3632 16.7182 13.9836 20.8724 13.9836C25.0267 13.9836 28.4063 17.3632 28.4063 21.5175C28.4063 25.6717 25.0267 29.0513 20.8724 29.0513C16.7182 29.0513 13.3386 25.6717 13.3386 21.5175ZM27.9242 48.0164C26.7101 48.0164 25.7225 47.0286 25.7225 45.8146C25.7225 44.6005 26.7101 43.6127 27.9242 43.6127C29.1384 43.6127 30.1261 44.6005 30.1261 45.8146C30.1261 47.0286 29.1383 48.0164 27.9242 48.0164ZM32.4291 44.5794C31.886 42.6009 30.0727 41.1425 27.924 41.1425C25.7754 41.1425 23.9621 42.6009 23.4189 44.5794H22.076V31.4464C26.478 30.9157 30.0075 27.5169 30.7358 23.1779H45.1138V44.5794H32.4291ZM53.4137 48.0164C52.1996 48.0164 51.212 47.0286 51.212 45.8146C51.212 44.6005 52.1996 43.6127 53.4137 43.6127C54.6278 43.6127 55.6156 44.6005 55.6156 45.8146C55.6156 47.0286 54.6279 48.0164 53.4137 48.0164ZM59.5299 44.5794H57.9189C57.3758 42.6009 55.5624 41.1425 53.4137 41.1425C51.265 41.1425 49.4519 42.6009 48.9087 44.5794H47.584V29.4833H53.0128L59.5298 36.923V44.5794H59.5299Z" fill="black"/>
<path d="M8.38707 42.0894H7.72808C7.04596 42.0894 6.49304 42.6423 6.49304 43.3244C6.49304 44.0065 7.04596 44.5594 7.72808 44.5594H8.38707C9.06919 44.5594 9.62211 44.0065 9.62211 43.3244C9.62211 42.6423 9.06919 42.0894 8.38707 42.0894Z" fill="black"/>
<path d="M7.72791 23.6093H2.80278C2.12066 23.6093 1.56775 24.1622 1.56775 24.8443C1.56775 25.5264 2.12066 26.0793 2.80278 26.0793H7.72791C8.41003 26.0793 8.96294 25.5264 8.96294 24.8443C8.96307 24.1622 8.41003 23.6093 7.72791 23.6093Z" fill="black"/>
<path d="M14.4707 32.7244H1.23504C0.552914 32.7244 0 33.2773 0 33.9594C0 34.6415 0.552914 35.1945 1.23504 35.1945H14.4707C15.1528 35.1945 15.7057 34.6415 15.7057 33.9594C15.7057 33.2773 15.1528 32.7244 14.4707 32.7244Z" fill="black"/>
<path d="M23.8657 22.764L22.1074 21.0059V15.7358C22.1074 15.0536 21.5545 14.5007 20.8724 14.5007C20.1902 14.5007 19.6373 15.0536 19.6373 15.7358V21.5175C19.6373 21.8451 19.7675 22.1592 19.999 22.3908L22.119 24.5108C22.3601 24.752 22.6763 24.8725 22.9924 24.8725C23.3084 24.8725 23.6246 24.7519 23.8657 24.5108C24.348 24.0285 24.348 23.2464 23.8657 22.764Z" fill="black"/>
</svg>
