<svg width="62" height="62" viewBox="0 0 62 62" fill="none" xmlns="http://www.w3.org/2000/svg">
<g clip-path="url(#clip0_352_30)">
<path d="M60.9667 8.13355C60.8557 7.84401 60.6056 7.6304 60.3023 7.56598C59.9989 7.50156 59.6837 7.59492 59.4645 7.8141L55.1378 12.1408C55.0158 12.2628 54.8168 12.263 54.6946 12.1408L51.8849 9.33092C51.7627 9.20874 51.7627 9.0099 51.8849 8.88772L56.2116 4.56105C56.4307 4.34187 56.5241 4.02654 56.4597 3.7232C56.3951 3.41998 56.1815 3.16992 55.8921 3.05888C52.6393 1.81138 48.947 2.5957 46.4857 5.05705C44.1976 7.34511 43.3568 10.7143 44.2608 13.7925L41.0566 16.7226C40.5721 16.4659 40.0728 16.2356 39.5622 16.0354L39.6927 14.3245C39.7609 13.4332 39.1473 12.6495 38.2657 12.5014L36.0078 12.1222C35.1259 11.9743 34.2905 12.5146 34.0637 13.379L33.6281 15.0388C33.1482 15.0584 32.6692 15.1019 32.1941 15.169L31.7638 14.252V12.1823C31.7638 12.1818 31.7638 12.1815 31.7638 12.181V12.1703C31.7638 12.1571 31.7625 12.1466 31.7622 12.1346C31.7616 12.1193 31.7615 12.104 31.7601 12.0887C31.7596 12.0829 31.7587 12.0779 31.7579 12.0724C31.743 11.9325 31.6963 11.7938 31.6137 11.668C31.3364 11.2453 30.7687 11.1278 30.3461 11.4049C29.3718 12.0443 27.051 12.437 25.8161 12.437C22.7908 12.437 19.8769 11.3561 17.4029 9.38263L14.5156 6.2704C15.0679 5.44382 15.6914 4.7313 16.3759 4.14884C19.2434 1.70881 22.6139 1.83099 22.6452 1.83293C24.7756 1.94288 26.7955 2.90788 28.6492 4.70067C30.3008 6.29825 31.534 8.57433 32.3146 11.4656C32.4464 11.9537 32.9489 12.2429 33.437 12.1107C33.9252 11.9789 34.2141 11.4765 34.0822 10.9883C33.2143 7.77342 31.8146 5.21519 29.922 3.3845C27.7414 1.27505 25.3248 0.137743 22.7397 0.00417636C22.574 -0.00417909 18.6289 -0.17262 15.1896 2.75421C14.2019 3.5946 13.3279 4.64993 12.5907 5.89077C12.5903 5.89138 12.5899 5.89174 12.5896 5.89235C12.5884 5.89441 12.5871 5.89647 12.5859 5.89852C12.5835 5.90264 12.5808 5.90676 12.5783 5.91088C12.5777 5.91184 12.5775 5.91281 12.5768 5.91378C11.8916 7.01682 11.4102 8.21868 11.1471 9.4864C10.9128 10.616 10.8578 11.7719 10.9839 12.9218C11.0127 13.1841 11.1533 13.4213 11.3695 13.5726C11.5247 13.6811 11.708 13.7376 11.8939 13.7376C11.9671 13.7376 12.0408 13.7288 12.1131 13.711C12.3422 13.6544 12.5689 13.591 12.793 13.5209V19.1768C12.793 22.3658 14.3765 25.1903 16.797 26.9107V28.4208C16.797 29.1653 16.3982 29.8478 15.7422 30.3266C15.711 30.3452 15.6805 30.3657 15.6513 30.3882C15.27 30.6469 14.8113 30.8409 14.2963 30.9415L10.0697 31.7691C6.15199 32.5362 3.41564 35.4721 3.41564 38.9086V51.725C3.41564 53.9848 4.28085 56.1238 5.85192 57.7477L8.19375 60.1686H1.36408C0.85851 60.1686 0.448608 60.5785 0.448608 61.0841C0.448608 61.5897 0.85851 61.9996 1.36408 61.9996H10.3531H10.9874H33.8967H35.1414H43.0898C43.5953 61.9996 44.0052 61.5897 44.0052 61.0841C44.0052 60.5785 43.5953 60.1686 43.0898 60.1686H37.0698L39.3223 57.4081C40.706 55.712 41.4682 53.5726 41.4682 51.3838V42.2262C41.9995 41.9217 42.5139 41.5847 43.0032 41.2162L44.3957 42.2236C44.7011 42.4445 45.0536 42.5521 45.4032 42.5521C45.8824 42.5521 46.3564 42.3499 46.6957 41.9601L48.1993 40.2335C48.7866 39.5595 48.7627 38.5644 48.1443 37.919L46.9577 36.6806C47.2743 36.1126 47.5525 35.523 47.7901 34.9171L49.5012 35.0478C50.3935 35.1148 51.1761 34.5023 51.3241 33.6208L51.7033 31.3628C51.8512 30.4814 51.3109 29.6456 50.4465 29.4188L48.7867 28.9832C48.7671 28.5032 48.7236 28.0242 48.6567 27.5492L50.2091 26.8203C51.0181 26.4406 51.3981 25.5208 51.0927 24.6806L50.3106 22.5289C50.0374 21.7775 49.3031 21.3307 48.5325 21.4079L50.0607 19.7137C53.1882 20.7052 56.6235 19.8848 58.9687 17.5396C61.4298 15.0786 62.2142 11.3864 60.9667 8.13355ZM31.7635 19.1765V17.0918C31.7868 17.0893 31.8096 17.089 31.8329 17.0845C32.6526 16.927 33.4936 16.8508 34.3294 16.858C34.332 16.858 34.3347 16.858 34.3375 16.858C34.7532 16.858 35.1172 16.5776 35.2229 16.1749L35.808 13.9451L37.8591 14.2896L37.6837 16.5883C37.6518 17.0061 37.9078 17.3924 38.305 17.5258C38.7484 17.6747 39.1839 17.8495 39.6086 18.0469L37.8789 19.6287C37.3006 19.4245 36.7027 19.2696 36.0942 19.1675C34.6449 18.9241 33.1695 18.9849 31.7596 19.3392C31.7602 19.2847 31.7635 19.231 31.7635 19.1765ZM31.5162 21.3195C32.8845 20.8525 34.3525 20.7315 35.7905 20.973C35.9607 21.0016 36.13 21.0353 36.298 21.0737L28.095 28.5756C28.0912 28.5242 28.0866 28.4729 28.0866 28.4208V26.6675C29.7802 25.3514 31.0164 23.4756 31.5162 21.3195ZM13.4964 11.2805C13.3793 11.3084 13.2712 11.3583 13.1764 11.4263C13.0356 11.4874 12.8935 11.5461 12.7494 11.6002C12.757 11.0155 12.8205 10.4329 12.9395 9.85853C13.0668 9.24482 13.2582 8.65062 13.506 8.07893C14.0956 8.8015 14.7247 9.46715 15.3883 10.0719C14.7157 10.6131 14.1419 10.9464 13.8802 11.0871C13.7544 11.1548 13.6259 11.2185 13.4964 11.2805ZM14.6238 19.1767V12.7637C14.6649 12.7424 14.7064 12.7218 14.7471 12.7C15.0972 12.5119 15.9149 12.0354 16.8316 11.2529C19.501 13.2054 22.5977 14.268 25.8159 14.268C26.8035 14.268 28.559 14.061 29.9262 13.6263L29.9327 19.1768C29.9327 23.3975 26.499 26.8312 22.2784 26.8312C18.0578 26.8312 14.6238 23.3974 14.6238 19.1767ZM39.6374 51.384H39.6371C39.6371 53.1522 39.0216 54.8806 37.9036 56.2508L36.4652 58.0137V43.4721C36.4652 42.0229 35.4134 40.8155 34.033 40.5712C34.0919 40.0657 34.3435 39.6048 34.7475 39.2805L35.7143 38.5044C36.1086 38.1879 36.1717 37.6117 35.8551 37.2175C35.5386 36.8233 34.9624 36.7601 34.5683 37.0767L33.6015 37.8528C32.7733 38.5176 32.2737 39.4786 32.199 40.5253H17.7111C17.2055 40.5253 16.7956 40.9352 16.7956 41.4408C16.7956 41.9464 17.2055 42.3563 17.7111 42.3563H33.5184C34.1338 42.3563 34.6345 42.857 34.6345 43.4723V59.4309C34.6345 59.8378 34.3034 60.1688 33.8967 60.1688H10.987C10.874 60.1688 10.7672 60.1424 10.6713 60.0967L10.3097 59.7229C10.271 59.6332 10.2491 59.5346 10.2491 59.4307V43.4723C10.2491 42.8569 10.7498 42.3563 11.3651 42.3563H14.0922C14.5978 42.3563 15.0077 41.9464 15.0077 41.4408C15.0077 40.9352 14.5978 40.5253 14.0922 40.5253H12.2759C12.2012 39.4785 11.7015 38.5175 10.8734 37.8528L9.90662 37.0767C9.51221 36.7601 8.93605 36.8233 8.61976 37.2175C8.30322 37.6118 8.36631 38.1881 8.76059 38.5044L9.7274 39.2806C10.1578 39.626 10.414 40.1271 10.4494 40.6716C9.27148 41.0577 8.41814 42.1669 8.41814 43.4723V57.7676L7.16772 56.4749C5.92882 55.1941 5.24633 53.5073 5.24633 51.7252V38.9089C5.24633 36.3597 7.37443 34.1627 10.4213 33.566L14.6478 32.7384C15.1828 32.6337 15.6805 32.4597 16.1307 32.2296C16.6779 32.6483 17.265 33.0117 17.8832 33.3139C18.0125 33.3771 18.1495 33.407 18.2845 33.407C18.6232 33.407 18.9489 33.2182 19.1077 32.8933C19.3298 32.4391 19.1413 31.8909 18.6871 31.6689C18.3218 31.4903 17.9701 31.2849 17.6337 31.0562C18.2636 30.3167 18.6278 29.403 18.6278 28.4208V27.9306C19.7521 28.4012 20.9852 28.6622 22.2783 28.6622C23.6982 28.6622 25.0452 28.3464 26.2558 27.7847V28.421C26.2558 29.4027 26.6195 30.3158 27.2489 31.0553C25.8376 32.0136 24.1651 32.534 22.4417 32.534C22.0918 32.534 21.7395 32.5128 21.3945 32.4708C20.8926 32.4093 20.4362 32.767 20.3752 33.2689C20.314 33.7709 20.6713 34.2273 21.1733 34.2883C21.5912 34.3392 22.0179 34.3649 22.4416 34.3649C24.7297 34.3649 26.9437 33.6092 28.7501 32.2285C29.2012 32.4592 29.6995 32.6338 30.2356 32.7387L34.4621 33.5662C35.062 33.6837 35.6257 33.8641 36.1452 34.0961C36.185 34.1177 36.2257 34.1367 36.2676 34.1519C38.3166 35.1129 39.637 36.9015 39.637 38.909V51.384H39.6374ZM38.0408 33.0403L42.8818 27.6731C43.132 28.7774 43.1659 29.9259 42.9757 31.0584C42.6789 32.8257 41.8527 34.4427 40.6176 35.7114C40.0233 34.6574 39.1404 33.741 38.0408 33.0403ZM48.6254 23.2533L49.336 25.208L47.2508 26.1868C46.8717 26.3648 46.6616 26.7771 46.7408 27.1883C46.8984 28.0079 46.9746 28.8478 46.9673 29.6848C46.9637 30.1039 47.245 30.4719 47.6504 30.5784L49.8802 31.1635L49.5357 33.2147L47.237 33.0392C46.8194 33.0072 46.433 33.2634 46.2995 33.6605C45.9853 34.5954 45.5618 35.4931 45.04 36.3288C44.8181 36.684 44.8658 37.1446 45.1556 37.4469L46.7496 39.1104L45.3836 40.6788L43.5144 39.3266C43.1754 39.0813 42.713 39.0972 42.3915 39.3653C42.0953 39.6122 41.7864 39.8458 41.4678 40.0657V38.9089C41.4678 38.4505 41.4177 38.0014 41.3241 37.5648C43.1545 35.9599 44.3756 33.7759 44.7811 31.3617C45.0803 29.5801 44.9198 27.7657 44.3211 26.0772L46.3227 23.858C46.3469 23.8535 46.3709 23.8489 46.395 23.8426L48.6254 23.2533ZM57.6739 16.2454C55.6935 18.2256 52.7324 18.8341 50.1304 17.7958C49.7744 17.6538 49.3678 17.7486 49.1112 18.0329L42.6226 25.2269C42.5959 25.2531 42.5709 25.2808 42.5477 25.3097L36.3354 32.1973C35.8521 32.018 35.3444 31.8732 34.814 31.7693L30.5875 30.9418C30.0726 30.8409 29.6137 30.6471 29.2325 30.3885C29.2032 30.3658 29.1727 30.3452 29.1414 30.3266C29.0952 30.2929 29.0516 30.2573 29.0082 30.2217L45.9344 14.7431C46.2097 14.4912 46.3047 14.0973 46.1744 13.7477C45.2188 11.1858 45.8492 8.28261 47.7802 6.35166C49.3747 4.75698 51.6212 4.05076 53.7971 4.38595L50.5903 7.59286C50.1852 7.99792 49.9622 8.5363 49.9622 9.10908C49.9622 9.68197 50.1852 10.2204 50.5903 10.6253L53.4 13.4351C54.2362 14.2713 55.5965 14.2713 56.4326 13.4351L59.6394 10.2283C59.9748 12.404 59.2683 14.6508 57.6739 16.2454Z" fill="black"/>
<path d="M22.2232 22.9065C23.2469 22.9065 24.2093 22.5078 24.9331 21.7838C25.2906 21.4264 25.2906 20.8467 24.9331 20.4892C24.5758 20.1316 23.996 20.1317 23.6385 20.4892C23.2605 20.8673 22.7577 21.0754 22.223 21.0754C21.6884 21.0754 21.1858 20.8673 20.8076 20.4892C20.4502 20.1317 19.8706 20.1317 19.513 20.4892C19.1555 20.8466 19.1555 21.4264 19.513 21.7838C20.2369 22.5078 21.1994 22.9065 22.2232 22.9065Z" fill="black"/>
<path d="M18.8797 16.464C19.4043 16.464 19.8295 16.0388 19.8295 15.5142C19.8295 14.9896 19.4043 14.5643 18.8797 14.5643C18.3551 14.5643 17.9298 14.9896 17.9298 15.5142C17.9298 16.0388 18.3551 16.464 18.8797 16.464Z" fill="black"/>
<path d="M25.3393 16.464C25.8639 16.464 26.2891 16.0388 26.2891 15.5142C26.2891 14.9896 25.8639 14.5643 25.3393 14.5643C24.8147 14.5643 24.3894 14.9896 24.3894 15.5142C24.3894 16.0388 24.8147 16.464 25.3393 16.464Z" fill="black"/>
<path d="M22.4417 48.1219C20.7098 48.1219 19.3009 49.5309 19.3009 51.2628C19.3009 52.9946 20.7098 54.4036 22.4417 54.4036C24.1736 54.4036 25.5825 52.9946 25.5825 51.2628C25.5825 49.5309 24.1736 48.1219 22.4417 48.1219ZM22.4417 52.5724C21.7195 52.5724 21.1318 51.9847 21.1318 51.2625C21.1318 50.5403 21.7195 49.9526 22.4417 49.9526C23.1639 49.9526 23.7516 50.5403 23.7516 51.2625C23.7516 51.9848 23.1639 52.5724 22.4417 52.5724Z" fill="black"/>
</g>
<defs>
<clipPath id="clip0_352_30">
<rect width="62" height="62" fill="white"/>
</clipPath>
</defs>
</svg>
