<svg width="62" height="62" viewBox="0 0 62 62" fill="none" xmlns="http://www.w3.org/2000/svg">
<g clip-path="url(#clip0_348_36)">
<path d="M10.6283 16.1215C10.8341 16.1215 11.0422 16.0694 11.2328 15.9592L11.2612 15.9431C11.8402 15.6087 12.0384 14.868 11.7044 14.2885C11.37 13.7095 10.6292 13.5113 10.0498 13.8458L10.0219 13.8618C9.44242 14.1963 9.24423 14.937 9.57865 15.516C9.80287 15.9044 10.2101 16.1215 10.6283 16.1215Z" fill="black"/>
<path d="M58.8516 53.7652H54.0078V22.6739L57.0352 24.4217C57.2225 24.53 57.4315 24.5839 57.6406 24.5839C57.8497 24.5839 58.0588 24.53 58.2461 24.4217C58.6207 24.2055 58.8516 23.8058 58.8516 23.373V18.5292C58.8516 18.0969 58.6207 17.6972 58.2461 17.4805L31.6059 2.09975C31.2308 1.88358 30.7696 1.88358 30.395 2.09975L14.2413 11.4259C13.6623 11.7603 13.4636 12.501 13.7981 13.08C14.1325 13.6595 14.8732 13.8577 15.4522 13.5232L31.0005 4.5467L56.4297 19.2284V21.2756L31.6059 6.9435C31.2308 6.72733 30.7696 6.72733 30.395 6.9435L5.57079 21.2756V19.2284L8.22018 17.6991C8.79916 17.3647 8.99783 16.6239 8.66341 16.0449C8.32898 15.4655 7.58823 15.2673 7.00925 15.6017L3.75438 17.4805C3.37975 17.6972 3.14891 18.0969 3.14891 18.5292V23.373C3.14891 23.8058 3.37975 24.2055 3.75438 24.4217C4.12901 24.6383 4.59068 24.6383 4.96532 24.4217L7.99266 22.6739V53.7652H3.14844C1.41244 53.7652 0 55.1776 0 56.9136V58.8511C0 59.5199 0.542084 60.062 1.21094 60.062H47.8519C48.5203 60.062 49.0628 59.5199 49.0628 58.8511C49.0628 58.1822 48.5203 57.6402 47.8519 57.6402H2.42188V56.9136C2.42188 56.52 2.75441 56.187 3.14844 56.187H58.8516C59.2456 56.187 59.5781 56.52 59.5781 56.9136V57.6402H56.2026C55.5343 57.6402 54.9917 58.1822 54.9917 58.8511C54.9917 59.5199 55.5343 60.062 56.2026 60.062H60.7891C61.4579 60.062 62 59.5199 62 58.8511V56.9136C62 55.1776 60.5876 53.7652 58.8516 53.7652ZM49.1641 26.1563H51.5859V53.7652H49.1641V26.1563ZM51.5859 23.7344H39.4766V14.2843L51.5859 21.2756V23.7344ZM31.0005 9.39045L37.0552 12.8861V23.7344H24.9458V12.8866L31.0005 9.39045ZM22.5239 14.2843V23.7344H10.4145V21.2756L22.5239 14.2843ZM10.4145 26.1563H12.8364V53.7652H10.4145V26.1563ZM15.2583 26.1563H46.7422V53.7652H45.2891V28.8203C45.2891 28.1515 44.747 27.6094 44.0781 27.6094H35.3594C34.691 27.6094 34.1484 28.1515 34.1484 28.8203V36.3277H26.6411C25.9722 36.3277 25.4302 36.8702 25.4302 37.5386V45.0464H17.9223C17.2535 45.0464 16.7114 45.5885 16.7114 46.2573V53.7652H15.2583V26.1563ZM36.5703 45.0464V38.75H38.5078C38.5078 39.4189 39.0504 39.9609 39.7188 39.9609C40.3876 39.9609 40.9297 39.4189 40.9297 38.75H42.8672V45.0464H36.5703ZM27.852 45.0464V38.75H29.7895C29.7895 39.4189 30.3316 39.9609 31.0005 39.9609C31.6689 39.9609 32.2109 39.4189 32.2109 38.75H34.1484V45.0464H27.852ZM39.7192 31.2422C40.3876 31.2422 40.9302 30.6996 40.9302 30.0313H42.8672V36.3277H36.5703V30.0313H38.5083C38.5083 30.6996 39.0504 31.2422 39.7192 31.2422ZM19.1333 47.4683H21.0708C21.0708 48.1371 21.6129 48.6792 22.2817 48.6792C22.9506 48.6792 23.4927 48.1371 23.4927 47.4683H25.4302V53.7652H19.1333V47.4683ZM27.852 47.4683H29.7895C29.7895 48.1371 30.3316 48.6792 31.0005 48.6792C31.6689 48.6792 32.2109 48.1371 32.2109 47.4683H34.1484V53.7652H27.852V47.4683ZM36.5703 53.7652V47.4683H38.5078C38.5078 48.1371 39.0504 48.6792 39.7188 48.6792C40.3876 48.6792 40.9297 48.1371 40.9297 47.4683H42.8672V53.7652H36.5703Z" fill="black"/>
<path d="M52.7236 57.6401H52.6909C52.0226 57.6401 51.4805 58.1822 51.4805 58.8511C51.4805 59.5199 52.0226 60.062 52.6909 60.062H52.7236C53.3924 60.062 53.9345 59.5199 53.9345 58.8511C53.9345 58.1822 53.3924 57.6401 52.7236 57.6401Z" fill="black"/>
</g>
<defs>
<clipPath id="clip0_348_36">
<rect width="62" height="62" fill="white"/>
</clipPath>
</defs>
</svg>
