<svg width="62" height="62" viewBox="0 0 62 62" fill="none" xmlns="http://www.w3.org/2000/svg">
<path d="M58.1781 10.2124L58.0956 10.198C48.6824 8.54746 39.7791 5.17646 31.6331 0.178796C31.2438 -0.0600014 30.7531 -0.0596381 30.3643 0.180128C22.2751 5.16725 13.4276 8.52797 4.06757 10.1693L3.82139 10.2124C3.24208 10.314 2.81958 10.817 2.81958 11.4052V27.2558C2.81958 35.3292 5.60607 43.24 10.6658 49.5312C15.7255 55.8222 22.8547 60.2405 30.74 61.9719C30.8258 61.9905 30.9127 61.9999 30.9999 61.9999C31.0872 61.9999 31.1745 61.9905 31.2603 61.9717C39.1464 60.2363 46.2758 55.8146 51.3348 49.5211C56.394 43.2276 59.1802 35.3146 59.1802 27.2397V11.4052C59.1802 10.8168 58.7575 10.3137 58.1781 10.2124ZM56.7585 27.2397C56.7585 42.588 45.9422 56.1323 30.9997 59.548C16.0575 56.1396 5.24146 42.6023 5.24146 27.2558V12.4183C14.382 10.723 23.0418 7.43195 31.0016 2.62828C38.9686 7.41415 47.6255 10.7038 56.7585 12.4165V27.2397Z" fill="black"/>
<path d="M30.9725 8.79861C31.1755 8.79861 31.3811 8.74751 31.5701 8.6401L31.5825 8.6332C31.583 8.63284 31.5928 8.62739 31.5933 8.62715C32.176 8.29983 32.3787 7.56467 32.0518 6.98173C31.7248 6.39866 30.9826 6.19365 30.3995 6.51987L30.3729 6.53489C29.7915 6.86548 29.5883 7.60475 29.9189 8.18612C30.1421 8.57847 30.5512 8.79861 30.9725 8.79861Z" fill="black"/>
<path d="M25.641 8.98791C20.4157 11.4801 14.8976 13.4059 9.24011 14.7113C8.69059 14.8381 8.30139 15.3273 8.30139 15.8912V27.2396C8.30139 28.5515 8.38991 29.876 8.56416 31.1763C8.64554 31.7845 9.1654 32.2264 9.76275 32.2264C9.81627 32.2264 9.87052 32.2229 9.92514 32.2155C10.588 32.1266 11.0532 31.5173 10.9644 30.8544C10.8043 29.6604 10.7231 28.4442 10.7231 27.2396V16.8487C16.2238 15.5111 21.5889 13.6039 26.6835 11.1739C27.2873 10.8861 27.5432 10.1632 27.2553 9.55959C26.9673 8.95594 26.2443 8.70019 25.641 8.98791Z" fill="black"/>
<path d="M52.4877 14.6803C51.8191 14.6803 51.2768 15.2224 51.2768 15.8912V27.2397C51.2768 38.0056 44.9159 47.8835 35.0714 52.4047C34.4638 52.6839 34.1973 53.4028 34.4764 54.0106C34.6804 54.4546 35.1191 54.7164 35.5776 54.7164C35.7468 54.7164 35.9186 54.6808 36.0822 54.6056C41.273 52.2217 45.6791 48.4053 48.8247 43.569C52.0133 38.6664 53.6987 33.0198 53.6987 27.2397V15.8912C53.6987 15.2226 53.1564 14.6803 52.4877 14.6803Z" fill="black"/>
<path d="M30.7356 53.9672L30.6894 53.9795C30.043 54.1511 29.6581 54.814 29.8296 55.4604C29.9735 56.0029 30.4633 56.3611 30.9992 56.3611C31.102 56.3611 31.2066 56.3481 31.3106 56.3203L31.3568 56.3081C32.0032 56.1365 32.3881 55.4735 32.2165 54.8271C32.0449 54.1804 31.3816 53.7956 30.7356 53.9672Z" fill="black"/>
<path d="M47.2396 31.2252C48.0277 29.9443 47.83 28.3127 46.7585 27.2573L45.5004 26.0179C45.3359 25.856 45.2512 25.6313 45.2675 25.4013L45.3936 23.6308C45.5009 22.1238 44.5655 20.7667 43.1191 20.3305L41.4528 19.8282C41.2306 19.7613 41.0502 19.6007 40.9578 19.3877L40.2604 17.7787C39.6649 16.4054 38.1662 15.6183 36.6982 15.9061L35.0075 16.2379C34.779 16.2827 34.5432 16.2246 34.3616 16.0779L33.016 14.9915C31.8478 14.0485 30.1523 14.0483 28.9843 14.9915L27.6384 16.0781C27.4569 16.2247 27.2212 16.2827 26.9925 16.2379L25.3018 15.9062C23.8332 15.6179 22.3349 16.4054 21.7397 17.7785L21.0419 19.3879C20.9495 19.6007 20.7692 19.7613 20.5469 19.8282L18.8811 20.3305C17.4346 20.7666 16.4993 22.1237 16.6066 23.6308L16.7326 25.4012C16.749 25.6313 16.6641 25.856 16.4999 26.0178L15.2416 27.2573C14.1702 28.3128 13.9723 29.9444 14.7605 31.2252L15.6908 32.7371C15.8116 32.9331 15.8403 33.1714 15.7699 33.3905L15.2254 35.0835C14.7644 36.5175 15.3471 38.0561 16.6422 38.825L18.1501 39.7204C18.3491 39.8386 18.4854 40.0371 18.5243 40.265L18.821 42.0058C19.0758 43.5001 20.3111 44.5964 21.8251 44.6716L23.5524 44.7574C23.7849 44.769 23.9991 44.8819 24.14 45.0673L25.1931 46.4527C25.8131 47.2685 26.7769 47.7166 27.7588 47.7166C28.2147 47.7166 28.6746 47.62 29.1056 47.4183L30.667 46.6892C30.8787 46.5904 31.1213 46.5905 31.333 46.6892L32.8943 47.4183C34.2539 48.0531 35.8995 47.647 36.8071 46.4524L37.8597 45.0672C38.0007 44.8818 38.2149 44.7688 38.4474 44.7573L40.175 44.6714C41.6891 44.5962 42.9243 43.5 43.1791 42.0057L43.4758 40.265C43.5147 40.0369 43.651 39.8385 43.85 39.7204L45.358 38.825C46.6531 38.0561 47.2358 36.5175 46.7746 35.0834L46.2303 33.3907C46.1598 33.1714 46.1885 32.9332 46.3092 32.7372L47.2396 31.2252ZM45.1771 29.9561L44.2464 31.4682C43.7548 32.2676 43.6375 33.2385 43.9247 34.1322L44.469 35.8249C44.5822 36.1767 44.4392 36.5542 44.1215 36.7428L42.6135 37.6382C41.8027 38.1195 41.247 38.9287 41.0884 39.8582L40.7918 41.5989C40.7292 41.9654 40.4262 42.2343 40.0549 42.2527L38.3273 42.3386C37.3791 42.3858 36.5058 42.8463 35.9315 43.6021L34.8789 44.9874C34.6562 45.2803 34.2527 45.3801 33.9192 45.2244L32.3579 44.4953C31.4949 44.0923 30.5053 44.0923 29.6423 44.4953L28.0809 45.2244C27.7472 45.38 27.3438 45.2802 27.1212 44.9874L26.0681 43.6017C25.4937 42.8461 24.6207 42.3857 23.6726 42.3386L21.9453 42.2527C21.5741 42.2343 21.2711 41.9654 21.2085 41.5989L20.9118 39.8581C20.7533 38.9286 20.1975 38.1195 19.3867 37.6381L17.8788 36.7427C17.561 36.5541 17.418 36.1766 17.5311 35.8249L18.0757 34.1318C18.3628 33.2384 18.2456 32.2675 17.7537 31.468L16.8232 29.956C16.6299 29.6419 16.6785 29.2417 16.9413 28.9828L18.1997 27.7433C18.8693 27.0834 19.2153 26.1672 19.1484 25.2294L19.0224 23.459C18.9961 23.0893 19.2255 22.7564 19.5803 22.6495L21.2461 22.1472C22.1522 21.874 22.8877 21.2193 23.2639 20.3513L23.9618 18.742C24.0876 18.4519 24.3777 18.2683 24.6861 18.2683C24.7356 18.2683 24.7856 18.273 24.8355 18.2828L26.5261 18.6145C27.4601 18.7979 28.4197 18.5602 29.1599 17.9624L30.5057 16.876C30.7921 16.6447 31.208 16.6447 31.4947 16.876L32.8403 17.9624C33.5804 18.5601 34.5403 18.7976 35.4741 18.6146L37.1646 18.2828C37.5244 18.212 37.8924 18.4054 38.0385 18.7421L38.7358 20.3511C39.1122 21.2193 39.8478 21.8741 40.7537 22.1472L42.42 22.6495C42.7747 22.7564 43.0041 23.0894 42.9779 23.459L42.8518 25.2295C42.785 26.1672 43.1309 27.0834 43.8007 27.7434L45.059 28.9829C45.3218 29.2419 45.3704 29.642 45.1771 29.9561Z" fill="black"/>
<path d="M34.1527 24.808C33.5705 24.4791 32.8319 24.6846 32.503 25.2672L25.9919 36.8007C25.6631 37.3832 25.8686 38.1218 26.4511 38.4505C26.6391 38.5567 26.8435 38.6072 27.0453 38.6072C27.4679 38.6072 27.8783 38.3856 28.1008 37.9913L34.6119 26.4578C34.9407 25.8753 34.7352 25.1368 34.1527 24.808Z" fill="black"/>
<path d="M35.2312 32.0337C33.2281 32.0337 31.5984 33.6634 31.5984 35.6665C31.5984 37.6696 33.2281 39.2993 35.2312 39.2993C37.2343 39.2993 38.864 37.6696 38.864 35.6665C38.864 33.6634 37.2343 32.0337 35.2312 32.0337ZM35.2312 36.8774C34.5635 36.8774 34.0203 36.3342 34.0203 35.6665C34.0203 34.9988 34.5635 34.4556 35.2312 34.4556C35.8989 34.4556 36.4421 34.9988 36.4421 35.6665C36.4421 36.3342 35.8989 36.8774 35.2312 36.8774Z" fill="black"/>
<path d="M26.7689 22.7006C24.7658 22.7006 23.1361 24.3302 23.1361 26.3334C23.1361 28.3365 24.7658 29.9662 26.7689 29.9662C28.7721 29.9662 30.4017 28.3365 30.4017 26.3334C30.4017 24.3301 28.7721 22.7006 26.7689 22.7006ZM26.7689 27.5443C26.1012 27.5443 25.558 27.0011 25.558 26.3334C25.558 25.6657 26.1012 25.1224 26.7689 25.1224C27.4366 25.1224 27.9799 25.6657 27.9799 26.3334C27.9799 27.0011 27.4366 27.5443 26.7689 27.5443Z" fill="black"/>
</svg>
