<svg width="65" height="65" viewBox="0 0 65 65" fill="none" xmlns="http://www.w3.org/2000/svg">
<g clip-path="url(#clip0_868_1632)">
<path d="M42.2823 25.257C42.0462 25.0209 41.7187 24.885 41.3847 24.885C41.0508 24.885 40.7231 25.0208 40.487 25.257C40.2508 25.4931 40.115 25.8207 40.115 26.1547C40.115 26.4887 40.2508 26.8163 40.487 27.0523C40.7231 27.2884 41.0506 27.4244 41.3847 27.4244C41.7185 27.4244 42.0461 27.2885 42.2823 27.0523C42.5185 26.8163 42.6543 26.4887 42.6543 26.1547C42.6543 25.8193 42.5185 25.4931 42.2823 25.257Z" fill="#087792"/>
<path d="M63.4116 0.717031C63.3974 0.706113 63.3825 0.696211 63.3679 0.685928C62.7504 0.254287 62.0001 0 61.1911 0H25.641C24.8826 0 24.1761 0.223564 23.5818 0.60709C23.5346 0.634766 23.489 0.665488 23.4451 0.699512C22.4702 1.39014 21.832 2.52586 21.832 3.80885V23.6153C21.832 25.7155 23.5407 27.4243 25.641 27.4243H35.0364C35.7377 27.4243 36.3061 26.8558 36.3061 26.1546C36.3061 25.4536 35.7377 24.885 35.0364 24.885H26.8864L37.3066 12.7099L42.673 16.5826C42.8948 16.7426 43.1553 16.8227 43.4161 16.8227C43.6761 16.8227 43.9361 16.743 44.1576 16.5836L49.5318 12.7173L59.9459 24.885H46.9713C46.2701 24.885 45.7016 25.4535 45.7016 26.1546C45.7016 26.8558 46.27 27.4243 46.9713 27.4243H61.1913C63.2916 27.4243 65.0003 25.7156 65.0003 23.6153V3.80897C65 2.5369 64.3725 1.40931 63.4116 0.717031ZM24.4007 23.8845C24.3819 23.7976 24.3713 23.7079 24.3713 23.6154V3.80897C24.3713 3.67313 24.3933 3.5425 24.433 3.41961L35.2407 11.2191L24.4007 23.8845ZM43.4174 13.9883L27.5527 2.53932H59.3313L43.4174 13.9883ZM62.4607 23.6154C62.4607 23.7077 62.4502 23.7976 62.4314 23.8845L51.6001 11.2293L62.409 3.453C62.4422 3.56611 62.4607 3.68532 62.4607 3.80885V23.6154Z" fill="#087792"/>
<path d="M56.8742 55.4935C56.6839 55.4935 56.5033 55.5354 56.3413 55.6104H55.7216C55.0204 55.6104 54.4519 56.1789 54.4519 56.8801C54.4519 57.5811 55.0203 58.1497 55.7216 58.1497H56.8743C57.5755 58.1497 58.144 57.5812 58.144 56.8801V56.7631C58.1438 56.0621 57.5755 55.4935 56.8742 55.4935Z" fill="#087792"/>
<path d="M56.8741 49.1453C56.173 49.1453 55.6045 49.7138 55.6045 50.415V51.6846C55.6045 52.3858 56.1729 52.9543 56.8741 52.9543C57.5754 52.9543 58.1438 52.3858 58.1438 51.6846V50.415C58.1438 49.7138 57.5754 49.1453 56.8741 49.1453Z" fill="#087792"/>
<path d="M50.6431 55.6104H49.3734C48.6723 55.6104 48.1038 56.1788 48.1038 56.88C48.1038 57.581 48.6721 58.1497 49.3734 58.1497H50.6431C51.3444 58.1497 51.9127 57.5812 51.9127 56.88C51.9127 56.179 51.3442 55.6104 50.6431 55.6104Z" fill="#087792"/>
<path d="M56.8741 30.1006C56.173 30.1006 55.6045 30.6691 55.6045 31.3703V32.6399C55.6045 33.341 56.1729 33.9096 56.8741 33.9096C57.5754 33.9096 58.1438 33.3411 58.1438 32.6399V31.3703C58.1438 30.6692 57.5754 30.1006 56.8741 30.1006Z" fill="#087792"/>
<path d="M56.8741 36.4489C56.173 36.4489 55.6045 37.0174 55.6045 37.7186V38.9882C55.6045 39.6893 56.1729 40.2579 56.8741 40.2579C57.5754 40.2579 58.1438 39.6894 58.1438 38.9882V37.7186C58.1438 37.0174 57.5754 36.4489 56.8741 36.4489Z" fill="#087792"/>
<path d="M56.8741 42.797C56.173 42.797 55.6045 43.3655 55.6045 44.0667V45.3363C55.6045 46.0375 56.1729 46.606 56.8741 46.606C57.5754 46.606 58.1438 46.0375 58.1438 45.3363V44.0667C58.1438 43.3656 57.5754 42.797 56.8741 42.797Z" fill="#087792"/>
<path d="M9.38954 6.85611H8.11988C7.41872 6.85611 6.85022 7.42461 6.85022 8.12577C6.85022 8.82693 7.41872 9.39543 8.11988 9.39543H9.38954C10.0907 9.39543 10.6592 8.82693 10.6592 8.12577C10.6591 7.42461 10.0907 6.85611 9.38954 6.85611Z" fill="#087792"/>
<path d="M15.7377 6.85611H14.468C13.7669 6.85611 13.1984 7.42461 13.1984 8.12577C13.1984 8.82693 13.7669 9.39543 14.468 9.39543H15.7377C16.4388 9.39543 17.0073 8.82693 17.0073 8.12577C17.0073 7.42461 16.439 6.85611 15.7377 6.85611Z" fill="#087792"/>
<path d="M8.11988 11.9346C7.41872 11.9346 6.85022 12.5031 6.85022 13.2042V14.4739C6.85022 15.175 7.41872 15.7435 8.11988 15.7435C8.82104 15.7435 9.38954 15.175 9.38954 14.4739V13.2042C9.38954 12.5032 8.82104 11.9346 8.11988 11.9346Z" fill="#087792"/>
<path d="M8.11988 18.283C7.41872 18.283 6.85022 18.8515 6.85022 19.5526V20.8223C6.85022 21.5234 7.41872 22.0919 8.11988 22.0919C8.82104 22.0919 9.38954 21.5234 9.38954 20.8223V19.5526C9.38954 18.8515 8.82104 18.283 8.11988 18.283Z" fill="#087792"/>
<path d="M14.0415 51.4612C13.8054 51.225 13.4778 51.0892 13.1438 51.0892C12.8086 51.0892 12.4823 51.225 12.2448 51.4612C12.0087 51.6973 11.8741 52.0248 11.8741 52.3589C11.8741 52.6929 12.0087 53.0203 12.2448 53.2565C12.4823 53.4926 12.8098 53.6285 13.1438 53.6285C13.4778 53.6285 13.804 53.4927 14.0415 53.2565C14.2776 53.0204 14.4135 52.6929 14.4135 52.3589C14.4135 52.0248 14.2776 51.6974 14.0415 51.4612Z" fill="#087792"/>
<path d="M39.5196 52.8044L32.8299 46.1147C30.9102 44.1951 27.7862 44.1949 25.8662 46.1149L25.4304 46.5508C24.825 47.1564 23.8399 47.1562 23.2345 46.5508L18.4493 41.7657C18.1561 41.4724 17.9946 41.0826 17.9946 40.6678C17.9946 40.253 18.1561 39.8632 18.4495 39.5699L18.8853 39.134C20.8052 37.214 20.8052 34.0901 18.8853 32.1702L12.1955 25.4804C10.2756 23.5606 7.15152 23.5606 5.23186 25.4804L3.63111 27.081C-1.21037 31.9226 -1.21037 39.8005 3.63111 44.6419L7.99513 49.006C8.49088 49.5016 9.29487 49.5016 9.79075 49.006C10.2865 48.5102 10.2865 47.7062 9.79075 47.2103L5.42674 42.8463C1.57523 38.9948 1.57523 32.728 5.42674 28.8765L7.02736 27.2759C7.95717 26.346 9.47007 26.346 10.3999 27.2759L17.0895 33.9656C18.0195 34.8954 18.0195 36.4083 17.0895 37.3381L16.6537 37.774C16.4936 37.9341 16.3494 38.1056 16.2198 38.2859L10.9359 33.002C10.4401 32.5064 9.63612 32.5064 9.14024 33.002C8.64449 33.4977 8.64449 34.3017 9.14024 34.7976L15.4832 41.1404C15.5878 42.0544 15.9934 42.9007 16.6537 43.5609L21.4388 48.3461C23.0344 49.9413 25.6303 49.9415 27.2259 48.3459L27.6618 47.91C28.5916 46.98 30.1045 46.98 31.0343 47.91L37.7241 54.5996C38.1744 55.0501 38.4226 55.649 38.4226 56.2858C38.4226 56.9226 38.1745 57.5216 37.724 57.972L36.815 58.881L30.7262 52.7922C30.2305 52.2966 29.4265 52.2966 28.9306 52.7922C28.4348 53.288 28.4348 54.092 28.9306 54.5878L34.9314 60.5886C31.0716 63.3866 25.629 63.0487 22.1533 59.5728L18.8655 56.2849C18.3697 55.7894 17.5657 55.7893 17.07 56.2849C16.5742 56.7807 16.5742 57.5847 17.07 58.0806L20.3578 61.3684C22.7786 63.7895 25.9585 65 29.1384 65C32.3183 65 35.4981 63.7896 37.919 61.3688L39.5195 59.7682C40.4497 58.8381 40.9618 57.6017 40.9618 56.2863C40.9618 54.971 40.4495 53.7345 39.5196 52.8044Z" fill="#087792"/>
</g>
<defs>
<clipPath id="clip0_868_1632">
<rect width="65" height="65" fill="white"/>
</clipPath>
</defs>
</svg>
