<svg width="65" height="65" viewBox="0 0 65 65" fill="none" xmlns="http://www.w3.org/2000/svg">
<path d="M60.7364 22.4236C59.4358 20.4053 57.2799 19.152 54.9046 19.0097C55.6018 18.0497 56.0151 16.8695 56.0151 15.595V11.9507C56.0151 11.8974 56.0125 11.8445 56.011 11.7908C56.0118 11.7696 56.0147 11.7491 56.0144 11.7275C55.9667 8.64112 53.4162 6.13013 50.3298 6.13013H49.9467C46.8111 6.13013 44.2603 8.68099 44.2603 11.8166V11.9164C44.2603 11.928 44.2599 11.9392 44.2599 11.9507V15.595C44.2599 16.8765 44.6773 18.0627 45.3816 19.0249C43.6297 19.1755 42.0027 19.9286 40.745 21.1864L37.2177 24.7136C36.835 25.0967 36.2298 25.1608 35.7752 24.8671L31.0863 21.6462C31.08 21.6414 31.0733 21.6369 31.0662 21.6328C29.9501 20.8987 28.5735 20.69 27.2893 21.0604L27.264 21.0679C26.1139 21.3992 25.3112 22.4668 25.3112 23.6634C25.3112 25.1802 26.0603 26.5929 27.315 27.4437L34.8815 32.6736C34.8849 32.6759 34.8879 32.6777 34.8912 32.68C35.1972 32.8868 35.5273 33.037 35.8687 33.1372C35.9727 33.192 36.0856 33.233 36.2063 33.255C37.3266 33.4622 38.4799 33.116 39.3002 32.3308L42.0511 29.8753L42.0724 35.0277L42.0713 40.2759H27.6985V36.4152C27.6985 33.7428 26.9334 31.1435 25.486 28.8975C24.1865 26.881 22.0337 25.6281 19.6606 25.4835C20.3705 24.5191 20.7908 23.3288 20.7908 22.042V18.3977C20.7908 18.3445 20.7886 18.2915 20.7871 18.2383C20.7875 18.217 20.7905 18.1961 20.7897 18.1742C20.7424 15.0881 18.1923 12.5768 15.1055 12.5768H14.7228C11.5872 12.5768 9.03638 15.1277 9.03638 18.2628V18.3635C9.03638 18.3746 9.03526 18.3862 9.03526 18.3977V22.042C9.03526 23.3266 9.45488 24.5146 10.1622 25.4787C7.74474 25.5897 5.5438 26.849 4.22384 28.8975C2.7768 31.1431 2.01135 33.7428 2.01135 36.4148V41.4688C2.01135 42.128 2.54575 42.6628 3.20499 42.6628H42.0709L42.0675 57.1727C42.0675 57.2126 42.0694 57.2521 42.0739 57.2912C42.0769 57.3225 42.0821 57.3527 42.0873 57.3833C42.0888 57.3911 42.0895 57.3993 42.091 57.4075C42.0981 57.4429 42.107 57.4776 42.1175 57.5119C42.1179 57.5145 42.1182 57.5174 42.1193 57.5201C42.1302 57.5551 42.1424 57.589 42.1559 57.6218C42.157 57.6248 42.1577 57.6274 42.1588 57.6296C42.1719 57.662 42.1868 57.6926 42.2024 57.7228C42.2047 57.7269 42.2065 57.7317 42.2092 57.7358C42.2241 57.7638 42.2408 57.7906 42.2572 57.8171C42.2617 57.823 42.2647 57.8301 42.2692 57.8361C42.2863 57.8618 42.3049 57.886 42.3239 57.9102C42.3292 57.9166 42.3336 57.9236 42.3388 57.93C42.3884 57.9907 42.4439 58.0459 42.5039 58.0951C42.5114 58.101 42.5196 58.1066 42.5274 58.113C42.5501 58.1308 42.5736 58.1487 42.5978 58.1648C42.6045 58.1696 42.6127 58.1737 42.6202 58.1785C42.6455 58.1946 42.6713 58.211 42.6981 58.2255C42.7037 58.2281 42.7093 58.2303 42.7149 58.2333C42.7436 58.2486 42.7734 58.2624 42.8036 58.2754C42.808 58.2769 42.8121 58.278 42.8158 58.2799C42.8479 58.2926 42.8803 58.3045 42.9135 58.3146C42.918 58.3161 42.9228 58.3168 42.9269 58.3183C42.9601 58.3276 42.9925 58.3366 43.0264 58.3429C43.0365 58.3451 43.0469 58.3462 43.057 58.3477C43.0853 58.3526 43.1132 58.3574 43.1423 58.3608C43.1773 58.3638 43.2131 58.3656 43.2496 58.3656C43.2534 58.3656 43.2575 58.3667 43.2612 58.3667H56.5387C57.1979 58.3667 57.7327 57.832 57.7327 57.1727V43.912L58.5705 43.3876C61.3121 41.6712 62.9488 38.7152 62.9488 35.4802V29.9413C62.9488 27.2693 62.1838 24.6696 60.7364 22.4236ZM35.2296 30.0117L28.6678 25.4768C28.6641 25.4742 28.6611 25.472 28.6577 25.4697C28.057 25.0632 27.3247 24.0372 27.8371 23.5244C28.3503 23.0113 29.2141 23.2751 29.7455 23.6213L34.4351 26.843C34.4418 26.8471 34.4481 26.8519 34.4552 26.856C34.7008 27.0178 34.9609 27.143 35.2296 27.2365V30.0117ZM11.4236 18.3631C11.4423 16.4856 12.9747 14.9641 14.8562 14.9641H14.9699C16.4963 14.9641 17.792 15.965 18.2381 17.3446C16.8798 17.1847 15.5848 17.6822 14.222 18.2062C13.9756 18.3012 13.7241 18.3977 13.4662 18.4932C13.1796 18.5986 12.5088 18.6094 11.4236 18.3828V18.3631ZM11.4229 20.8126C11.9592 20.9043 12.4447 20.9516 12.8793 20.9516C13.4274 20.9516 13.8966 20.8786 14.2916 20.7332C14.5603 20.6341 14.8227 20.5331 15.0787 20.4347C16.3498 19.9454 17.3542 19.5597 18.1748 19.7527C18.25 19.7703 18.3264 19.7829 18.404 19.7904V22.0413C18.404 23.8695 16.9677 25.368 15.1644 25.4686H14.6624C12.8588 25.368 11.4229 23.8695 11.4229 22.0413V20.8126ZM25.3112 40.2756H22.9336V32.604C22.9336 31.9447 22.3993 31.4103 21.74 31.4103H19.3487C18.6894 31.4103 18.1554 31.9447 18.1554 32.604C18.1554 33.2632 18.6894 33.7972 19.3487 33.7972H20.5468V40.176H9.2801V33.7894L10.2852 33.7827C10.9444 33.7782 11.4754 33.2405 11.4706 32.5808C11.4665 31.9216 10.9247 31.3921 10.2691 31.3954L8.07827 31.4103C7.42201 31.4144 6.89246 31.9477 6.89246 32.604V40.2756H4.39899V36.4148C4.39899 34.2027 5.03214 32.0502 6.23062 30.1906C7.17233 28.7287 8.77291 27.8566 10.5114 27.8566H14.627C14.7031 27.8592 14.7795 27.8622 14.8566 27.8622H14.9699C15.0474 27.8622 15.1234 27.8592 15.1998 27.8566H19.1985C20.9373 27.8566 22.5379 28.7287 23.4796 30.1906C24.6781 32.0502 25.3116 34.2027 25.3116 36.4148V40.2756H25.3112ZM46.6479 11.9164C46.6666 10.039 48.1989 8.51739 50.0805 8.51739H50.1945C51.721 8.51739 53.0163 9.51836 53.4624 10.8983C52.1044 10.7388 50.8091 11.236 49.4462 11.7599C49.2003 11.8546 48.9484 11.9515 48.6905 12.0465C48.4039 12.1523 47.7331 12.1628 46.6479 11.9369V11.9164ZM46.6472 14.3667C47.1831 14.458 47.669 14.5057 48.1032 14.5057C48.6513 14.5057 49.1205 14.4326 49.5155 14.2866C49.785 14.1874 50.047 14.0868 50.3037 13.9881C51.5745 13.4995 52.5781 13.1134 53.3987 13.3061C53.4739 13.3236 53.5507 13.3363 53.6279 13.3441V15.595C53.6279 17.3286 52.3358 18.7656 50.6645 18.9959H49.6106C47.9392 18.7656 46.6472 17.3286 46.6472 15.595V14.3667ZM44.4563 50.5286L44.46 36.2162H55.3451V55.9795H51.1877V40.2342C51.1877 39.5749 50.6529 39.0406 49.9937 39.0406C49.3344 39.0406 48.8 39.5749 48.8 40.2342V55.9795H44.4556L44.4563 50.5286ZM57.7327 41.0723V36.2162H60.5225C60.319 38.16 59.315 39.9118 57.7327 41.0723ZM60.5355 33.8293H57.7327V28.217C57.7327 27.5578 57.1979 27.0234 56.5387 27.0234C56.1992 27.0234 55.8933 27.1657 55.6764 27.393C55.4558 27.6096 55.3194 27.9107 55.3194 28.2438V33.8293H44.46L44.4615 29.0771C44.469 28.2554 43.9879 27.5156 43.2325 27.1907C42.4838 26.868 41.6241 27.0211 41.0334 27.5794L37.719 30.5383C37.7059 30.5495 37.6936 30.561 37.6813 30.573C37.6605 30.5934 37.6385 30.6121 37.6165 30.6307V27.2429C38.086 27.0677 38.5168 26.7919 38.8798 26.429L42.407 22.9014C43.3689 21.9395 44.6479 21.41 46.0084 21.41H48.7523V25.7511C48.7523 26.4103 49.2864 26.9447 49.9456 26.9447C50.6048 26.9447 51.1396 26.4103 51.1396 25.7511V21.41H54.4224C56.1612 21.41 57.7614 22.2824 58.7035 23.7439C59.902 25.6035 60.5355 27.756 60.5355 29.9681V33.8293Z" fill="#087792"/>
<path d="M50.6838 29.3912L50.6536 29.3681C50.1289 28.9686 49.3802 29.0704 48.9811 29.5954C48.5816 30.1198 48.6833 30.8688 49.2077 31.2679L49.2386 31.291C49.4544 31.4554 49.7085 31.5348 49.9601 31.5348C50.3204 31.5348 50.676 31.3727 50.9107 31.0641C51.3106 30.5394 51.2089 29.7907 50.6838 29.3912Z" fill="#087792"/>
<path d="M15.5322 31.6593L15.5013 31.6358C14.9766 31.2371 14.2279 31.3384 13.8288 31.8631C13.4297 32.3875 13.531 33.1365 14.0558 33.536L14.0863 33.5591C14.3025 33.7235 14.5562 33.8028 14.8082 33.8028C15.1681 33.8028 15.5244 33.6407 15.7592 33.3318C16.1583 32.8075 16.0566 32.0584 15.5322 31.6593Z" fill="#087792"/>
</svg>
