<svg width="65" height="65" viewBox="0 0 65 65" fill="none" xmlns="http://www.w3.org/2000/svg">
<g clip-path="url(#clip0_868_1906)">
<path d="M64.9977 10.2267C64.961 8.40225 64.2236 6.69334 62.9198 5.41438C61.6141 4.13345 59.8878 3.42776 58.0589 3.42776C57.93 3.42776 57.8015 3.43074 57.6741 3.43719H24.3469C19.5346 3.43719 15.6189 7.87857 15.6189 13.3376V20.8556L9.65602 14.8927L5.55484 10.7911C5.31184 10.5486 4.98305 10.4122 4.63988 10.4122C4.29671 10.4122 3.96743 10.5486 3.72493 10.7911L3.18389 11.3326L2.20794 10.3566C1.7026 9.8513 0.883357 9.8513 0.378023 10.3566C-0.12731 10.862 -0.12731 11.6812 0.378023 12.1865L1.35398 13.162L0.812442 13.7035C0.307604 14.2089 0.307604 15.0281 0.812442 15.5334L4.91164 19.6322C4.91263 19.6331 4.91313 19.6341 4.91412 19.6346L6.42368 21.1442L5.39466 22.1737L4.00512 20.7842C3.49978 20.2788 2.68103 20.2788 2.1752 20.7842C1.67037 21.2895 1.67037 22.1087 2.1752 22.6141L4.47722 24.9156C4.47772 24.9166 4.47871 24.9176 4.4797 24.9181C4.4802 24.9191 4.48119 24.9196 4.48218 24.9205L9.16606 29.6044C9.41848 29.8573 9.74975 29.9833 10.081 29.9833C10.4118 29.9833 10.7431 29.8573 10.9955 29.6044C11.5008 29.0991 11.5008 28.2799 10.9955 27.7745L7.22457 24.0031L8.25359 22.9741L15.6189 30.3399V47.4503H15.3521C11.842 47.4503 8.98654 50.6648 8.98654 54.6157C8.98654 58.5666 11.842 61.7811 15.3521 61.7811H43.1905C48.0033 61.7811 51.9186 57.3397 51.9186 51.8803V18.4117L51.922 17.3078H57.9553C59.8492 17.3078 61.6949 16.5327 63.02 15.1814C64.3322 13.8419 65.0349 12.0829 64.9977 10.2267ZM29.8322 39.7771L28.4907 39L29.0392 38.4515L29.8322 39.7771ZM26.3851 37.4463L24.0345 35.0957L25.117 34.0131L27.4677 36.3637L26.3851 37.4463ZM22.2051 33.2662L7.65899 18.7202L8.74107 17.6376L23.2871 32.1832L22.2051 33.2662ZM4.09488 14.0809C4.09636 14.0794 4.09736 14.0784 4.09884 14.077L4.10232 14.0735L4.63988 13.5359L6.91165 15.8077L5.82908 16.8903L3.55731 14.6185L4.09488 14.0809ZM15.3521 59.1935C13.2692 59.1935 11.5742 57.1399 11.5742 54.6157C11.5742 52.0915 13.2692 50.0379 15.3521 50.0379H38.7348C37.8153 51.2802 37.2624 52.8765 37.2624 54.6157C37.2624 56.3549 37.8099 57.9512 38.7253 59.1935H15.3521ZM49.3309 18.4078V51.8803C49.3309 55.8113 46.7135 59.0278 43.4449 59.187C41.4276 59.0705 39.8501 57.0675 39.8501 54.6157C39.8501 52.0915 41.5446 50.0379 43.6279 50.0379C44.3425 50.0379 44.9217 49.4587 44.9217 48.7441C44.9217 48.0295 44.3425 47.4503 43.6279 47.4503H18.2065V32.9275L21.2901 36.0106L25.4701 40.1906C25.4706 40.1911 25.4711 40.1916 25.4711 40.1916C25.4731 40.1936 25.4746 40.1951 25.4766 40.1971C25.483 40.203 25.4895 40.2095 25.4959 40.2154C25.4994 40.2189 25.5024 40.2219 25.5058 40.2249C25.5108 40.2298 25.5158 40.2343 25.5207 40.2387C25.5252 40.2422 25.5291 40.2457 25.5331 40.2497C25.5376 40.2536 25.5425 40.2576 25.547 40.2616C25.551 40.265 25.5554 40.2685 25.5594 40.272C25.5644 40.2759 25.5693 40.2799 25.5738 40.2834C25.5782 40.2868 25.5822 40.2903 25.5867 40.2938C25.5916 40.2978 25.5966 40.3017 25.6015 40.3052C25.606 40.3087 25.61 40.3116 25.6144 40.3151C25.6204 40.3196 25.6268 40.324 25.6333 40.3285C25.6402 40.3335 25.6467 40.3379 25.6536 40.3429C25.6591 40.3464 25.664 40.3498 25.6695 40.3538C25.674 40.3568 25.6789 40.3597 25.6834 40.3627C25.6883 40.3662 25.6933 40.3692 25.6982 40.3721C25.7032 40.3756 25.7082 40.3786 25.7131 40.3816C25.7181 40.3845 25.7235 40.3875 25.7285 40.3905C25.7315 40.392 25.734 40.394 25.7369 40.3955L31.0824 43.4904C31.374 43.6595 31.6908 43.7419 32.0043 43.7419C32.1238 43.7419 32.2433 43.7295 32.3603 43.7057C32.4545 43.728 32.5532 43.7394 32.6544 43.7394H42.6168C43.3309 43.7394 43.9106 43.1602 43.9106 42.4455C43.9106 41.7309 43.3309 41.1517 42.6168 41.1517H33.6586C33.6303 41.0912 33.5991 41.0312 33.5639 40.9727L30.4213 35.7225C30.3752 35.6417 30.3196 35.5648 30.2547 35.4934C30.2522 35.4904 30.2497 35.4879 30.2472 35.4849C30.2418 35.4795 30.2368 35.474 30.2314 35.4686C30.2279 35.4646 30.2239 35.4611 30.22 35.4572C30.2175 35.4542 30.2145 35.4512 30.212 35.4487L26.0345 31.2712C26.0335 31.2702 26.0325 31.2692 26.032 31.2687L18.2065 23.4432V13.3376C18.2065 9.3053 20.9608 6.02485 24.3469 6.02485H52.172C50.4269 7.83641 49.3309 10.4399 49.3309 13.3281V13.3351V13.3381C49.3309 13.34 49.3319 14.013 49.3334 14.6849C49.3339 15.0212 49.3344 15.3574 49.3354 15.6093L49.3368 15.9173C49.3373 15.952 49.3383 15.9862 49.3398 16.0199L49.3309 18.4078ZM61.1718 13.3698C60.3183 14.2406 59.1757 14.7207 57.9553 14.7207H51.921C51.9205 14.5238 51.92 14.3249 51.92 14.1394C51.92 14.129 51.92 14.1186 51.92 14.1082C51.92 14.0933 51.92 14.0789 51.92 14.0641C51.92 14.0447 51.92 14.0254 51.92 14.006C51.92 14.0011 51.92 13.9956 51.92 13.9902C51.9195 13.6991 51.9191 13.4561 51.9191 13.3341C51.9205 9.30332 54.6743 6.02485 58.0594 6.02485C58.1055 6.02485 58.1517 6.02237 58.1968 6.01741C60.4874 6.09031 62.3649 7.97378 62.411 10.2783C62.4339 11.4338 61.994 12.5312 61.1718 13.3698Z" fill="#087792"/>
<path d="M42.6177 35.6416H37.487C36.7723 35.6416 36.1931 36.2209 36.1931 36.9355C36.1931 37.6501 36.7723 38.2293 37.487 38.2293H42.6177C43.3318 38.2293 43.9115 37.6501 43.9115 36.9355C43.9115 36.2209 43.3318 35.6416 42.6177 35.6416Z" fill="#087792"/>
<path d="M42.6175 30.132H32.6552C31.9406 30.132 31.3613 30.7113 31.3613 31.4254C31.3613 32.14 31.9406 32.7192 32.6552 32.7192H42.6175C43.3316 32.7192 43.9114 32.14 43.9114 31.4254C43.9114 30.7113 43.3316 30.132 42.6175 30.132Z" fill="#087792"/>
<path d="M42.6178 24.6215H24.8339C24.1193 24.6215 23.54 25.2007 23.54 25.9154C23.54 26.63 24.1193 27.2092 24.8339 27.2092H42.6178C43.3319 27.2092 43.9116 26.63 43.9116 25.9154C43.9116 25.2007 43.3319 24.6215 42.6178 24.6215Z" fill="#087792"/>
<path d="M42.6177 19.1118H39.6417C38.9276 19.1118 38.3479 19.6911 38.3479 20.4052C38.3479 21.1198 38.9276 21.699 39.6417 21.699H42.6177C43.3318 21.699 43.9115 21.1198 43.9115 20.4052C43.9115 19.6911 43.3318 19.1118 42.6177 19.1118Z" fill="#087792"/>
<path d="M29.3347 21.699C30.0488 21.699 30.6285 21.1198 30.6285 20.4052C30.6285 19.6911 30.0488 19.1118 29.3347 19.1118H24.2456C23.531 19.1118 22.9518 19.6911 22.9518 20.4052C22.9518 21.1198 23.531 21.699 24.2456 21.699H29.3347Z" fill="#087792"/>
<path d="M42.6176 13.6013H24.2456C23.531 13.6013 22.9518 14.1805 22.9518 14.8951C22.9518 15.6098 23.531 16.189 24.2456 16.189H42.6176C43.3318 16.189 43.9115 15.6098 43.9115 14.8951C43.9115 14.1805 43.3318 13.6013 42.6176 13.6013Z" fill="#087792"/>
<path d="M34.4147 21.7298C34.5759 21.7298 34.74 21.6996 34.8987 21.6356C35.5612 21.3678 35.8816 20.6135 35.6138 19.951L35.589 19.89C35.3212 19.2274 34.5669 18.9076 33.9044 19.1754C33.2424 19.4432 32.922 20.1974 33.1898 20.86L33.2146 20.921C33.4179 21.4243 33.9029 21.7298 34.4147 21.7298Z" fill="#087792"/>
</g>
<defs>
<clipPath id="clip0_868_1906">
<rect width="65" height="65" fill="white"/>
</clipPath>
</defs>
</svg>
