<svg width="65" height="65" viewBox="0 0 65 65" fill="none" xmlns="http://www.w3.org/2000/svg">
<g clip-path="url(#clip0_868_2098)">
<path d="M0.205582 5.96257L4.54056 13.5483C4.68679 13.8047 4.93153 13.9901 5.21774 14.0619L9.26206 15.073L23.1332 28.9441L24.6659 27.4119L10.5776 13.3241C10.439 13.185 10.2651 13.0865 10.0748 13.0388L6.18869 12.0638L2.4979 5.60147L5.6622 2.43717L12.1272 6.13153L13.1026 10.0176C13.1499 10.2084 13.2489 10.3827 13.3875 10.5213L27.4758 24.6096L29.008 23.0769L15.1368 9.20578L14.1258 5.1637C14.054 4.87704 13.8685 4.63185 13.6122 4.48518L6.02598 0.150649C5.60291 -0.0900842 5.07062 -0.0187559 4.72557 0.324958L0.391036 4.65994C0.0424182 5.00276 -0.0333682 5.53594 0.205582 5.96257Z" fill="#087792"/>
<path d="M45.2606 21.358L21.4195 45.1995L19.8868 43.6668L43.7283 19.8257L45.2606 21.358Z" fill="#087792"/>
<path d="M17.2468 46.0429C17.0506 45.7166 16.6985 45.5173 16.3177 45.5173H9.81572C9.43545 45.5173 9.08282 45.7166 8.88712 46.0429L5.63588 51.4612C5.42948 51.8045 5.42948 52.2338 5.63588 52.5775L8.88712 57.9958C9.08282 58.3217 9.43545 58.5214 9.81572 58.5214H16.3177C16.6985 58.5214 17.0506 58.3217 17.2468 57.9958L20.4976 52.5775C20.704 52.2338 20.704 51.8045 20.4976 51.4612L17.2468 46.0429ZM15.7048 56.3539H10.4291L7.82834 52.0194L10.4291 47.6844H15.7048L18.3056 52.0194L15.7048 56.3539Z" fill="#087792"/>
<path d="M52.0796 26.0107C59.2369 26.0348 65.0591 20.2519 65.0832 13.0945C65.0868 12.005 64.953 10.9199 64.6851 9.86379C64.5407 9.28291 63.9526 8.92939 63.3718 9.07383C63.181 9.12153 63.0071 9.22005 62.868 9.35869L56.1221 16.1001L50.7698 14.3165L48.9848 8.9655L55.7307 2.21829C56.1538 1.79477 56.1533 1.10868 55.7298 0.685618C55.5903 0.546082 55.4146 0.447114 55.2225 0.399859C48.2814 -1.35794 41.2301 2.84374 39.4723 9.78443C39.2053 10.8374 39.072 11.9198 39.0755 13.0062C39.0782 13.8595 39.166 14.7101 39.339 15.5455L15.6058 39.2782C14.7704 39.1057 13.9198 39.0179 13.067 39.0148C5.88468 39.0148 0.0625 44.8369 0.0625 52.0193C0.0625 59.2011 5.88468 65.0233 13.067 65.0233C20.2489 65.0233 26.071 59.2011 26.071 52.0193C26.0684 51.166 25.9801 50.3154 25.8076 49.48L31.4893 43.7982L33.9742 46.2831C34.3977 46.7062 35.0834 46.7062 35.5069 46.2831L36.0485 45.741C36.5238 45.2689 37.2919 45.2689 37.7671 45.741C38.2419 46.2145 38.2428 46.983 37.7693 47.4578C37.7689 47.4583 37.768 47.4591 37.7671 47.46L37.2255 48.0017C36.8024 48.4248 36.8024 49.1108 37.2255 49.5339L50.1528 62.4613C53.553 65.8926 59.0907 65.9176 62.5221 62.5174C65.953 59.1173 65.9779 53.5791 62.5778 50.1482C62.5595 50.1295 62.5408 50.1108 62.5221 50.0921L49.5947 37.1651C49.1716 36.7421 48.4855 36.7421 48.0625 37.1651L47.5208 37.7068C47.0452 38.1793 46.2775 38.1793 45.8018 37.7068C45.3275 37.2333 45.3261 36.4648 45.7996 35.9905C45.8005 35.9896 45.8014 35.9891 45.8018 35.9882L46.3439 35.4461C46.767 35.0231 46.767 34.337 46.3439 33.9139L43.859 31.429L49.5408 25.7473C50.3762 25.9198 51.2268 26.0081 52.0796 26.0107ZM56.3375 62.8563C55.5502 62.8549 54.7696 62.7127 54.0327 62.4359L62.4962 53.9719C63.7734 57.3693 62.0549 61.1586 58.6574 62.4359C57.916 62.7145 57.1301 62.8571 56.3375 62.8563ZM44.0605 34.6909C42.8604 36.1224 43.0485 38.256 44.48 39.4557C45.7381 40.51 47.5716 40.5091 48.8284 39.4525L60.9898 51.6247C61.1218 51.7571 61.2453 51.8967 61.3648 52.0384L52.0992 61.304C51.957 61.1849 51.8175 61.0615 51.6851 60.9291L39.5142 48.7573C40.7143 47.3259 40.5262 45.1922 39.0947 43.9926C37.8367 42.9378 36.0026 42.9392 34.7459 43.9953L33.0122 42.2615L42.3263 32.9612L44.0605 34.6909ZM48.4365 23.7915L23.8527 48.3704C23.583 48.6396 23.4747 49.0306 23.5665 49.4002C25.0533 55.2388 21.5252 61.1774 15.6861 62.6637C9.84741 64.1504 3.90888 60.6223 2.42213 54.7832C0.935826 48.9446 4.46391 43.006 10.303 41.5193C12.0693 41.0699 13.9198 41.0699 15.6861 41.5193C16.0557 41.6098 16.4457 41.5015 16.7159 41.2335L41.2939 16.6542C41.5631 16.385 41.6715 15.994 41.5787 15.6249C40.1022 9.85443 43.583 3.97965 49.3535 2.50271C50.4439 2.22408 51.5718 2.11709 52.6952 2.18708L46.9787 7.90582C46.6885 8.1956 46.5869 8.6249 46.7166 9.01409L48.8836 15.5166C48.992 15.8398 49.2461 16.0939 49.5697 16.2013L56.0722 18.3688C56.4609 18.4985 56.8902 18.3973 57.1805 18.1076L62.897 12.391C62.9099 12.5979 62.9166 12.8025 62.9166 13.0062C62.9469 18.9608 58.1447 23.8125 52.1902 23.8432C51.2696 23.8477 50.3521 23.7345 49.4605 23.5062C49.0909 23.4139 48.7 23.5218 48.4307 23.7911H48.4365V23.7915Z" fill="#087792"/>
<path d="M56.0981 54.5038L54.5654 56.0365L43.7289 45.1999L45.2611 43.6672L56.0981 54.5038Z" fill="#087792"/>
</g>
<defs>
<clipPath id="clip0_868_2098">
<rect width="65" height="65" fill="white"/>
</clipPath>
</defs>
</svg>
