<svg width="65" height="65" viewBox="0 0 65 65" fill="none" xmlns="http://www.w3.org/2000/svg">
<g clip-path="url(#clip0_868_2329)">
<path d="M21.9058 49.7532C21.8893 49.672 21.8651 49.592 21.8334 49.5146C21.8017 49.4384 21.7623 49.3648 21.7166 49.2962C21.6709 49.2264 21.6176 49.1616 21.5592 49.1032C21.5008 49.0448 21.436 48.9915 21.3662 48.9458C21.2977 48.9001 21.224 48.8608 21.1466 48.829C21.0704 48.7973 20.9904 48.7719 20.9092 48.7567C20.7454 48.7237 20.5766 48.7237 20.4141 48.7567C20.3328 48.7719 20.2528 48.7973 20.1754 48.829C20.0992 48.8608 20.0256 48.9001 19.957 48.9458C19.8872 48.9915 19.8225 49.0448 19.7641 49.1032C19.7057 49.1616 19.6523 49.2264 19.6066 49.2962C19.5597 49.3648 19.5216 49.4384 19.4898 49.5146C19.4581 49.592 19.4327 49.672 19.4175 49.7532C19.401 49.8345 19.3921 49.9183 19.3921 50.0008C19.3921 50.0833 19.401 50.1671 19.4175 50.2484C19.4327 50.3296 19.4581 50.4096 19.4898 50.4858C19.5216 50.5632 19.5597 50.6368 19.6066 50.7054C19.6523 50.7752 19.7057 50.84 19.7641 50.8984C19.8225 50.9568 19.8872 51.0101 19.957 51.0558C20.0256 51.1016 20.0992 51.141 20.1754 51.1727C20.2528 51.2044 20.3328 51.2298 20.4141 51.2451C20.4953 51.2616 20.5791 51.2705 20.6616 51.2705C20.7441 51.2705 20.8279 51.2616 20.9092 51.2451C20.9904 51.2298 21.0704 51.2044 21.1466 51.1727C21.224 51.141 21.2977 51.1015 21.3662 51.0558C21.436 51.0101 21.5008 50.9568 21.5592 50.8984C21.6176 50.84 21.6709 50.7752 21.7166 50.7054C21.7623 50.6368 21.8017 50.5632 21.8334 50.4858C21.8651 50.4096 21.8893 50.3296 21.9058 50.2484C21.9223 50.1671 21.9312 50.0833 21.9312 50.0008C21.9312 49.9183 21.9223 49.8345 21.9058 49.7532Z" fill="#087792"/>
<path d="M58.3975 50.1442C58.3926 50.1315 58.3875 50.1189 58.3822 50.1065C57.2137 47.3723 54.4733 46.3618 51.2302 47.4694L42.3856 49.9153C41.8742 48.3667 40.5987 47.049 38.7952 46.3797C38.7841 46.3756 38.7729 46.3715 38.7616 46.3677L29.0394 43.068C28.2302 42.022 25.6954 39.3456 20.9496 39.3456C17.6329 39.3456 14.6989 41.6208 13.0203 44.1008H1.26953C0.568369 44.1008 0 44.6692 0 45.3704V61.3763C0 62.0774 0.568369 62.6458 1.26953 62.6458H8.81778C9.51895 62.6458 10.0873 62.0774 10.0873 61.3763V60.2801H13.6271C14.3283 60.2801 14.8967 59.7118 14.8967 59.0106V58.6452C16.9602 58.8253 17.6389 59.2167 19.534 60.3095C20.9914 61.1499 23.1942 62.4201 27.161 64.2036C27.1794 64.2119 27.1981 64.2197 27.2167 64.2271C27.9781 64.5266 29.4663 64.9971 31.3012 64.9971C32.5783 64.9971 34.0237 64.7689 35.5073 64.0965L55.0569 57.0968C55.0917 57.0843 55.126 57.0704 55.1595 57.0549C57.0279 56.1953 59.8121 53.7726 58.3975 50.1442ZM7.54825 60.1066H2.53906V46.6398H7.54825V60.1066ZM12.3576 57.741H10.0873V46.6398H12.3576V57.741ZM54.145 54.7262L34.6041 61.7227C34.587 61.7288 34.5637 61.7379 34.5469 61.7448C34.5297 61.7518 34.5126 61.7591 34.4957 61.7669C31.7742 63.0176 29.1873 62.2689 28.1734 61.8747C24.3417 60.1505 22.2966 58.9713 20.8024 58.1096C18.725 56.9117 17.7239 56.3343 14.8967 56.1008V45.8758C16.1001 43.9034 18.4337 41.8845 20.9497 41.8845C25.2643 41.8845 27.0926 44.6908 27.1644 44.804C27.3194 45.0562 27.5577 45.2462 27.8379 45.3413L37.9275 48.7657C39.5389 49.3705 40.3905 50.7505 39.9991 52.1267C39.8185 52.7622 39.401 53.2893 38.8239 53.6109C38.2517 53.9297 37.5903 54.0085 36.9599 53.8341L25.5858 50.2296C24.917 50.0178 24.2037 50.3879 23.992 51.0564C23.7801 51.7248 24.1503 52.4382 24.8187 52.6501L36.2126 56.2608C36.2247 56.2646 36.2367 56.2683 36.2489 56.2717C36.7038 56.4011 37.1669 56.4651 37.6273 56.4651C38.47 56.4651 39.3034 56.2504 40.0598 55.8289C41.2294 55.1773 42.0752 54.1091 42.4413 52.8211C42.4705 52.7183 42.4964 52.6155 42.5189 52.5126L52.0509 49.872C53.4276 49.4018 55.2348 49.2323 56.0394 51.0854C56.8722 53.261 54.7077 54.4578 54.145 54.7262Z" fill="#087792"/>
<path d="M45.5838 16.6998C45.5673 16.6185 45.5432 16.5385 45.5102 16.4611C45.4784 16.3849 45.4403 16.3113 45.3934 16.2427C45.3477 16.1729 45.2943 16.1082 45.2359 16.0498C45.1775 15.9914 45.1128 15.938 45.043 15.8923C44.9744 15.8466 44.9008 15.8073 44.8246 15.7755C44.7472 15.7438 44.6672 15.7184 44.5872 15.7032C44.4234 15.6702 44.2546 15.6702 44.0908 15.7032C44.0096 15.7184 43.9296 15.7438 43.8534 15.7755C43.776 15.8073 43.7023 15.8466 43.6338 15.8923C43.564 15.938 43.4992 15.9914 43.4408 16.0498C43.3824 16.1082 43.3291 16.1729 43.2834 16.2427C43.2377 16.3113 43.1983 16.3849 43.1666 16.4611C43.1349 16.5385 43.1095 16.6185 43.0942 16.6998C43.0777 16.781 43.0688 16.8648 43.0688 16.9473C43.0688 17.0298 43.0777 17.1136 43.0942 17.1949C43.1095 17.2761 43.1349 17.3561 43.1666 17.4323C43.1983 17.5097 43.2377 17.5834 43.2834 17.6519C43.3291 17.7217 43.3824 17.7865 43.4408 17.8449C43.4992 17.9033 43.564 17.9566 43.6338 18.0023C43.7023 18.048 43.776 18.0874 43.8534 18.1191C43.9296 18.1508 44.0096 18.175 44.0908 18.1915C44.1721 18.208 44.2559 18.2168 44.3384 18.2168C44.4209 18.2168 44.5047 18.208 44.5872 18.1915C44.6672 18.175 44.7472 18.1508 44.8246 18.1191C44.9008 18.0874 44.9744 18.048 45.043 18.0023C45.1128 17.9566 45.1775 17.9033 45.2359 17.8449C45.2943 17.7865 45.3477 17.7217 45.3934 17.6519C45.4403 17.5834 45.4784 17.5097 45.5102 17.4323C45.5432 17.3561 45.5673 17.2761 45.5838 17.1949C45.6003 17.1136 45.6079 17.0298 45.6079 16.9473C45.6079 16.8648 45.6003 16.781 45.5838 16.6998Z" fill="#087792"/>
<path d="M63.7305 4.30262H56.1823C55.4811 4.30262 54.9128 4.87099 54.9128 5.57215V6.66827H51.3729C50.6718 6.66827 50.1034 7.23664 50.1034 7.9378V8.30317C48.0399 8.12302 47.3612 7.73175 45.4662 6.63894C44.0088 5.79851 41.806 4.52835 37.8391 2.74478C37.8207 2.7364 37.8021 2.72866 37.7832 2.72129C36.492 2.21323 33.1078 1.2136 29.4933 2.85168L24.3847 4.68082L20.0786 0.37482C19.5828 -0.120932 18.779 -0.120932 18.2832 0.37482L4.14599 14.5119C3.6887 14.9694 3.60098 15.7624 4.14599 16.3074L28.3035 40.465C28.6901 40.8517 29.5953 40.9686 30.099 40.465L43.0057 27.5584C43.3412 27.5873 43.6895 27.603 44.0504 27.603C47.3672 27.603 50.3011 25.3277 51.9795 22.8478H63.7305C64.4317 22.8478 65.0001 22.2794 65.0001 21.5783V5.57215C65.0001 4.87099 64.4317 4.30262 63.7305 4.30262ZM19.1808 3.06788L22.0743 5.96139C21.2142 6.49333 20.2198 6.77795 19.1808 6.77795C18.1417 6.77795 17.1474 6.49345 16.2873 5.96139L19.1808 3.06788ZM9.73269 18.3033L6.83917 15.4096L9.73269 12.5161C10.2646 13.3762 10.5492 14.3706 10.5492 15.4096C10.5492 16.4486 10.2647 17.443 9.73269 18.3033ZM29.2013 37.7718L26.3083 34.8788C28.0746 33.7888 30.3278 33.7888 32.0942 34.8788L29.2013 37.7718ZM33.9233 33.0499C31.1179 31.0148 27.2847 31.0148 24.4793 33.0499L11.5617 20.1322C12.5531 18.7687 13.0883 17.1309 13.0883 15.4096C13.0883 13.6883 12.5532 12.0506 11.5617 10.6871L14.4584 7.79053C15.8219 8.78191 17.4596 9.31714 19.1809 9.31714C20.9023 9.31714 22.54 8.78191 23.9034 7.79053L26.6493 10.5364C26.0568 10.6239 25.4791 10.8191 24.9403 11.1194C24.0303 11.6264 23.3163 12.3857 22.8717 13.3044C21.4397 13.5696 20.1139 14.2629 19.0739 15.3027C16.2524 18.1244 16.2524 22.7154 19.074 25.5371C20.4847 26.9478 22.3379 27.6532 24.1911 27.6532C26.0443 27.6532 27.8975 26.9479 29.3083 25.5371C30.2262 24.6192 30.8692 23.4911 31.1913 22.2617L35.4778 23.7164C34.9952 25.9518 35.4894 28.3035 36.8226 30.1507L33.9233 33.0499ZM26.2048 20.5687C26.216 20.5728 26.2272 20.5769 26.2385 20.5807L28.777 21.4423C28.5853 22.3075 28.1515 23.103 27.513 23.7417C25.6813 25.5731 22.7009 25.5734 20.8695 23.7417C19.0378 21.9101 19.0378 18.9299 20.8695 17.0982C21.3113 16.6562 21.8327 16.3107 22.4008 16.0765C22.6352 18.0268 24.0394 19.7651 26.2048 20.5687ZM38.6518 28.3213C38.1618 27.5227 37.8845 26.6113 37.8407 25.6811C38.4488 26.1208 39.192 26.5515 40.0797 26.8934L38.6518 28.3213ZM50.1033 21.0721C48.9 23.0447 46.5663 25.0636 44.0504 25.0636C43.5797 25.0636 43.1385 25.0301 42.726 24.9705C42.7244 24.9702 42.7227 24.97 42.7211 24.9697C39.9794 24.5715 38.5046 23.0132 38.0185 22.3962C37.9926 22.3581 37.8823 22.2138 37.8659 22.1898C37.718 21.9255 37.4755 21.713 37.1662 21.608L27.0724 18.1822C25.4617 17.5776 24.6102 16.1983 25.0004 14.8226C25.0007 14.8217 25.001 14.8208 25.0012 14.8199C25.0016 14.8189 25.0018 14.8178 25.0021 14.8168C25.1835 14.1833 25.6002 13.6578 26.176 13.337C26.7481 13.0182 27.4094 12.9391 28.0401 13.1139L39.4142 16.7183C40.0827 16.9304 40.7962 16.5599 41.008 15.8915C41.2197 15.2231 40.8497 14.5097 40.1812 14.2978L31.1352 11.4312L31.0562 11.3522C31.0555 11.3514 31.0547 11.3506 31.0538 11.3498L26.3705 6.66649L30.396 5.22506C30.4095 5.22011 30.4263 5.21389 30.4398 5.20843C30.4432 5.20704 30.4498 5.2045 30.4531 5.2031C30.4703 5.19612 30.4874 5.18876 30.5042 5.18101C33.2256 3.93027 35.8124 4.67891 36.8264 5.07323C40.6582 6.79738 42.7034 7.97665 44.1977 8.83828C46.2751 10.0363 47.2761 10.6136 50.1033 10.8471V21.0721ZM54.9128 20.3085H52.6425V9.20733H54.9128V20.3085ZM62.461 20.3085H57.4518V6.84168H62.461V20.3085Z" fill="#087792"/>
</g>
<defs>
<clipPath id="clip0_868_2329">
<rect width="65" height="65" fill="white"/>
</clipPath>
</defs>
</svg>
