<svg width="65" height="65" viewBox="0 0 65 65" fill="none" xmlns="http://www.w3.org/2000/svg">
<g clip-path="url(#clip0_868_2388)">
<path d="M14.3034 55.3516H10.4102C9.70912 55.3516 9.14062 55.9201 9.14062 56.6211C9.14062 57.3221 9.70912 57.8906 10.4102 57.8906H14.3034C15.0045 57.8906 15.573 57.3221 15.573 56.6211C15.573 55.9201 15.0045 55.3516 14.3034 55.3516Z" fill="#087792"/>
<path d="M19.7527 55.7235C19.5164 55.4874 19.1889 55.3516 18.8551 55.3516C18.5199 55.3516 18.1937 55.4873 17.9577 55.7235C17.7215 55.9597 17.5856 56.2872 17.5856 56.6211C17.5856 56.955 17.7214 57.2825 17.9577 57.5185C18.1937 57.7547 18.5201 57.8906 18.8551 57.8906C19.189 57.8906 19.5165 57.7548 19.7527 57.5185C19.9888 57.2825 20.1246 56.955 20.1246 56.6211C20.1246 56.2872 19.9889 55.9597 19.7527 55.7235Z" fill="#087792"/>
<path d="M24.6404 23.4864C24.4042 23.2502 24.078 23.1143 23.7428 23.1143C23.4089 23.1143 23.0814 23.2501 22.8454 23.4864C22.6092 23.7224 22.4733 24.0499 22.4733 24.3838C22.4733 24.7178 22.6091 25.0453 22.8454 25.2813C23.0825 25.5176 23.4089 25.6533 23.7428 25.6533C24.0781 25.6533 24.4042 25.5176 24.6404 25.2813C24.8778 25.0453 25.0135 24.7178 25.0135 24.3838C25.0135 24.0499 24.8778 23.7224 24.6404 23.4864Z" fill="#087792"/>
<path d="M34.6137 23.4864C34.3777 23.2502 34.0502 23.1143 33.7163 23.1143C33.3824 23.1143 33.0549 23.2501 32.8187 23.4864C32.5826 23.7224 32.4468 24.0499 32.4468 24.3838C32.4468 24.7178 32.5825 25.0453 32.8187 25.2813C33.0549 25.5176 33.3824 25.6533 33.7163 25.6533C34.0502 25.6533 34.3777 25.5176 34.6137 25.2813C34.8499 25.0453 34.9858 24.7178 34.9858 24.3838C34.9858 24.0499 34.85 23.7224 34.6137 23.4864Z" fill="#087792"/>
<path d="M59.2236 40.625H33.1982C30.0131 40.625 27.4219 43.2162 27.4219 46.4014V62.4609H2.53906V51.0923C2.53906 46.9118 5.34435 43.183 9.36089 42.0243L19.3671 39.1379L17.9309 45.5527C17.818 46.0568 18.0219 46.5791 18.4465 46.8734C18.6639 47.0241 18.9168 47.0995 19.1698 47.0995C19.4113 47.0995 19.6531 47.0307 19.8642 46.8928L23.785 44.3311C24.372 43.9476 24.537 43.1609 24.1535 42.5739C23.7699 41.987 22.9835 41.822 22.3962 42.2054L21.0914 43.0581L22.2593 37.8414C24.2726 38.9083 26.501 39.4426 28.7299 39.4426C31.0871 39.4426 33.4447 38.8459 35.5461 37.6526C38.3044 36.0907 40.3724 33.6192 41.4602 30.7387H43.832C46.1921 30.7387 48.1122 28.8186 48.1122 26.4584V21.0158C48.1122 19.7632 47.5712 18.6346 46.7109 17.8511C46.6273 7.9936 38.5897 0 28.7204 0C18.8678 0 10.8409 7.96631 10.7301 17.8005C9.8362 18.5856 9.2705 19.7355 9.2705 21.0158V26.4586C9.2705 28.8187 11.1907 30.7389 13.5508 30.7389H15.9991C16.8151 32.8985 18.1834 34.8278 19.9817 36.3182L8.65731 39.5849C6.14174 40.3105 3.97998 41.7999 2.40602 43.8923C0.832051 45.9843 0 48.4741 0 51.0923V63.7305C0 64.4315 0.568496 65 1.26953 65H63.7305C64.4315 65 65 64.4315 65 63.7305V46.4014C65 43.2162 62.4088 40.625 59.2236 40.625ZM45.5734 21.0158V26.4586C45.5734 27.4187 44.7924 28.1997 43.8322 28.1997H42.1428C42.2604 27.4885 42.3217 26.7632 42.3217 26.0296V19.2745H43.8322C44.7924 19.2745 45.5734 20.0557 45.5734 21.0158ZM13.5507 28.1997C12.5906 28.1997 11.8094 27.4186 11.8094 26.4584V21.0157C11.8094 20.0555 12.5906 19.2745 13.5507 19.2745H15.1387C15.1385 19.282 15.1375 19.2893 15.1375 19.2969V26.0296C15.1375 26.7632 15.1988 27.4885 15.3164 28.1997H13.5507ZM15.1885 16.7355H13.5508C13.4729 16.7355 13.3955 16.7379 13.3184 16.7419C13.9632 8.80255 20.6244 2.53906 28.7204 2.53906C36.8178 2.53906 43.4798 8.80483 44.1226 16.7464C44.0266 16.7399 43.93 16.7355 43.8322 16.7355H42.2839C42.2704 16.6804 42.2536 16.6267 42.2332 16.5746C41.5838 9.68398 35.7708 4.27413 28.7181 4.27413C21.6106 4.27413 15.7619 9.76828 15.1885 16.7355ZM17.6806 17.8604C17.6806 11.7691 22.6319 6.81319 28.7179 6.81319C33.5389 6.81319 37.6472 9.92316 39.147 14.2438L36.077 16.3599C34.4949 17.4507 32.6427 18.0273 30.7206 18.0273H17.6684C17.6757 17.9725 17.6806 17.9171 17.6806 17.8604ZM17.6766 26.0296V20.5664H30.7206C33.1596 20.5664 35.5103 19.8346 37.5183 18.4505L39.7163 16.9354C39.7417 17.2405 39.7554 17.5489 39.7554 17.8604C39.7554 17.9502 39.7649 18.0375 39.7827 18.1221V26.0297C39.7827 27.679 39.4035 29.2768 38.7099 30.7172H33.5891C33.1556 29.3296 31.8585 28.3196 30.33 28.3196H28.7077C26.8255 28.3196 25.294 29.851 25.294 31.7332C25.294 33.6154 26.8255 35.1468 28.7077 35.1468H30.33C31.6652 35.1468 32.8228 34.376 33.3836 33.2563H37.0112C36.2402 34.116 35.3272 34.8592 34.2941 35.4442C30.8664 37.3901 26.6063 37.3925 23.1677 35.4453L23.1645 35.4435C19.7794 33.5267 17.6766 29.9194 17.6766 26.0296ZM31.2043 31.7331C31.2043 32.2154 30.812 32.6077 30.3297 32.6077H28.7074C28.2251 32.6077 27.8328 32.2154 27.8328 31.7331C27.8328 31.2508 28.2251 30.8585 28.7074 30.8585H30.3297C30.812 30.8585 31.2043 31.2508 31.2043 31.7331ZM62.4609 62.4609H59.4141V56.9173C59.4141 56.2162 58.8456 55.6477 58.1445 55.6477C57.4435 55.6477 56.875 56.2162 56.875 56.9173V62.4609H56.1133H29.9609V46.4014C29.9609 44.6163 31.4132 43.1641 33.1982 43.1641H59.2236C61.0087 43.1641 62.4609 44.6163 62.4609 46.4014V62.4609Z" fill="#087792"/>
<path d="M46.2109 48.5596C43.8659 48.5596 41.958 50.4674 41.958 52.8125C41.958 55.1576 43.8659 57.0654 46.2109 57.0654C48.556 57.0654 50.4639 55.1576 50.4639 52.8125C50.4639 50.4674 48.556 48.5596 46.2109 48.5596ZM46.2109 54.5264C45.2659 54.5264 44.4971 53.7575 44.4971 52.8125C44.4971 51.8675 45.2659 51.0986 46.2109 51.0986C47.156 51.0986 47.9248 51.8675 47.9248 52.8125C47.9248 53.7575 47.156 54.5264 46.2109 54.5264Z" fill="#087792"/>
<path d="M64.6281 27.8167C62.6187 25.8074 59.9472 24.7007 57.1055 24.7007C54.2639 24.7007 51.5923 25.8074 49.583 27.8167C49.0872 28.3124 49.0872 29.1163 49.583 29.6122C49.8311 29.86 50.1558 29.984 50.4808 29.984C50.8058 29.984 51.1305 29.86 51.3785 29.6122C52.9083 28.0824 54.9421 27.2398 57.1055 27.2398C59.2689 27.2398 61.3029 28.0824 62.8326 29.6122C63.3284 30.1078 64.1321 30.1078 64.6281 29.6122C65.1238 29.1164 65.1238 28.3125 64.6281 27.8167Z" fill="#087792"/>
<path d="M61.0587 31.3861C58.8788 29.2065 55.3322 29.2067 53.1526 31.3861C52.6568 31.8819 52.6568 32.6856 53.1526 33.1816C53.6485 33.6771 54.4521 33.6774 54.9481 33.1816C56.1378 31.9918 58.0737 31.9921 59.2633 33.1816C59.5113 33.4294 59.836 33.5535 60.161 33.5535C60.486 33.5535 60.8109 33.4294 61.0587 33.1816C61.5545 32.6858 61.5545 31.882 61.0587 31.3861Z" fill="#087792"/>
<path d="M58.0035 34.7344C57.7674 34.497 57.44 34.3624 57.106 34.3624C56.7709 34.3624 56.4445 34.497 56.2085 34.7344C55.9711 34.9705 55.8364 35.2969 55.8364 35.6319C55.8364 35.9658 55.9711 36.2921 56.2085 36.5295C56.4445 36.7655 56.7709 36.9014 57.106 36.9014C57.44 36.9014 57.7674 36.7656 58.0035 36.5295C58.2396 36.2921 58.3755 35.9658 58.3755 35.6319C58.3755 35.2968 58.2398 34.9705 58.0035 34.7344Z" fill="#087792"/>
<path d="M59.042 51.1532C58.806 50.917 58.4784 50.7812 58.1445 50.7812C57.8106 50.7812 57.4831 50.917 57.247 51.1532C57.0108 51.3895 56.875 51.7169 56.875 52.0508C56.875 52.3847 57.0107 52.7122 57.247 52.9482C57.4831 53.1843 57.8106 53.3203 58.1445 53.3203C58.4784 53.3203 58.806 53.1845 59.042 52.9482C59.2782 52.7122 59.4141 52.3847 59.4141 52.0508C59.4141 51.7169 59.2782 51.3894 59.042 51.1532Z" fill="#087792"/>
</g>
<defs>
<clipPath id="clip0_868_2388">
<rect width="65" height="65" fill="white"/>
</clipPath>
</defs>
</svg>
